<svg width="40" height="36" viewBox="0 0 40 36" fill="none" xmlns="http://www.w3.org/2000/svg">
<path d="M17.3129 4C16.252 4 15.2346 4.42143 14.4844 5.17157L12.8276 6.82843C12.0774 7.57857 11.06 8 9.99915 8H8C5.79086 8 4 9.79086 4 12V28C4 30.2091 5.79086 32 8 32H32C34.2091 32 36 30.2091 36 28V12C36 9.79086 34.2091 8 32 8H30.0009C28.94 8 27.9226 7.57857 27.1724 6.82843L25.5156 5.17157C24.7654 4.42143 23.748 4 22.6871 4H17.3129ZM12.8284 1.17157C13.5786 0.421426 14.596 0 15.6569 0H24.3431C25.404 0 26.4214 0.421428 27.1716 1.17157L28.8284 2.82843C29.5786 3.57857 30.596 4 31.6569 4H38C38.5304 4 39.0391 4.21071 39.4142 4.58579C39.7893 4.96086 40 5.46957 40 6V34C40 34.5304 39.7893 35.0391 39.4142 35.4142C39.0391 35.7893 38.5304 36 38 36H2C1.46957 36 0.960859 35.7893 0.585786 35.4142C0.210714 35.0391 0 34.5304 0 34V6C0 5.46957 0.210714 4.96086 0.585786 4.58579C0.960859 4.21071 1.46957 4 2 4H8.34315C9.40401 4 10.4214 3.57857 11.1716 2.82843L12.8284 1.17157ZM20 30C17.0826 30 14.2847 28.8411 12.2218 26.7782C10.1589 24.7153 9 21.9174 9 19C9 16.0826 10.1589 13.2847 12.2218 11.2218C14.2847 9.15892 17.0826 8 20 8C22.9174 8 25.7153 9.15892 27.7782 11.2218C29.8411 13.2847 31 16.0826 31 19C31 21.9174 29.8411 24.7153 27.7782 26.7782C25.7153 28.8411 22.9174 30 20 30ZM20 26C21.8565 26 23.637 25.2625 24.9497 23.9497C26.2625 22.637 27 20.8565 27 19C27 17.1435 26.2625 15.363 24.9497 14.0503C23.637 12.7375 21.8565 12 20 12C18.1435 12 16.363 12.7375 15.0503 14.0503C13.7375 15.363 13 17.1435 13 19C13 20.8565 13.7375 22.637 15.0503 23.9497C16.363 25.2625 18.1435 26 20 26Z" fill="#998256"/>
</svg>
