<svg width="20" height="20" viewBox="0 0 20 20" fill="none" xmlns="http://www.w3.org/2000/svg">
<path d="M19.5307 7.10254H17.192L16.542 5.47754C15.8741 3.80684 14.2799 2.72754 12.4803 2.72754H7.51939C5.72017 2.72754 4.12564 3.80684 3.45728 5.47754L2.80728 7.10254H0.468999C0.16392 7.10254 -0.0599077 7.38926 0.0143111 7.68496L0.248686 8.62246C0.300639 8.83105 0.488139 8.97754 0.703374 8.97754H1.48736C0.962749 9.43574 0.624858 10.1018 0.624858 10.8525V12.7275C0.624858 13.3572 0.865483 13.9256 1.24986 14.3654V16.4775C1.24986 17.1678 1.80962 17.7275 2.49986 17.7275H3.74986C4.44009 17.7275 4.99986 17.1678 4.99986 16.4775V15.2275H14.9999V16.4775C14.9999 17.1678 15.5596 17.7275 16.2499 17.7275H17.4999C18.1901 17.7275 18.7499 17.1678 18.7499 16.4775V14.3654C19.1342 13.926 19.3749 13.3576 19.3749 12.7275V10.8525C19.3749 10.1018 19.037 9.43574 18.5127 8.97754H19.2967C19.512 8.97754 19.6995 8.83105 19.7514 8.62246L19.9858 7.68496C20.0596 7.38926 19.8358 7.10254 19.5307 7.10254ZM5.77837 6.40605C6.06314 5.69434 6.75259 5.22754 7.51939 5.22754H12.4803C13.2471 5.22754 13.9366 5.69434 14.2213 6.40605L14.9999 8.35254H4.99986L5.77837 6.40605ZM3.74986 12.7197C2.99986 12.7197 2.49986 12.2213 2.49986 11.4736C2.49986 10.726 2.99986 10.2275 3.74986 10.2275C4.49986 10.2275 5.62486 11.349 5.62486 12.0967C5.62486 12.8443 4.49986 12.7197 3.74986 12.7197ZM16.2499 12.7197C15.4999 12.7197 14.3749 12.8443 14.3749 12.0967C14.3749 11.349 15.4999 10.2275 16.2499 10.2275C16.9999 10.2275 17.4999 10.726 17.4999 11.4736C17.4999 12.2213 16.9999 12.7197 16.2499 12.7197Z" fill="#636B73"/>
</svg>
