<svg width="17" height="17" viewBox="0 0 17 17" fill="none" xmlns="http://www.w3.org/2000/svg">
<path d="M2.25211 6.53766H15.1626C15.3635 6.53766 15.528 6.70208 15.528 6.90305V14.8198C15.528 15.6267 14.8733 16.2814 14.0664 16.2814H3.34828C2.54138 16.2814 1.88672 15.6267 1.88672 14.8198V6.90305C1.88672 6.70208 2.05114 6.53766 2.25211 6.53766ZM15.528 5.19789V4.10172C15.528 3.29481 14.8733 2.64016 14.0664 2.64016H12.6048V1.0568C12.6048 0.855832 12.4404 0.691406 12.2395 0.691406H11.0215C10.8205 0.691406 10.6561 0.855832 10.6561 1.0568V2.64016H6.75859V1.0568C6.75859 0.855832 6.59417 0.691406 6.3932 0.691406H5.17523C4.97427 0.691406 4.80984 0.855832 4.80984 1.0568V2.64016H3.34828C2.54138 2.64016 1.88672 3.29481 1.88672 4.10172V5.19789C1.88672 5.39886 2.05114 5.56328 2.25211 5.56328H15.1626C15.3635 5.56328 15.528 5.39886 15.528 5.19789Z" fill="#998256"/>
</svg>
