<svg width="44" height="44" viewBox="0 0 44 44" fill="none" xmlns="http://www.w3.org/2000/svg">
<path d="M2 22C2 24.6264 2.51732 27.2272 3.52241 29.6537C4.5275 32.0802 6.00069 34.285 7.85786 36.1421C9.71504 37.9993 11.9198 39.4725 14.3463 40.4776C16.7728 41.4827 19.3736 42 22 42C24.6264 42 27.2272 41.4827 29.6537 40.4776C32.0802 39.4725 34.285 37.9993 36.1421 36.1421C37.9993 34.285 39.4725 32.0802 40.4776 29.6537C41.4827 27.2272 42 24.6264 42 22C42 19.3736 41.4827 16.7728 40.4776 14.3463C39.4725 11.9198 37.9993 9.71504 36.1421 7.85786C34.285 6.00069 32.0802 4.5275 29.6537 3.52241C27.2272 2.51732 24.6264 2 22 2C19.3736 2 16.7728 2.51732 14.3463 3.52241C11.9198 4.5275 9.71504 6.00069 7.85786 7.85786C6.00069 9.71504 4.5275 11.9198 3.52241 14.3463C2.51732 16.7728 2 19.3736 2 22Z" fill="#1D1D1D" stroke="#998256" stroke-width="3" stroke-linecap="round" stroke-linejoin="round"/>
<path d="M15.3333 21.9991C15.3333 23.7672 16.0357 25.4629 17.286 26.7132C18.5362 27.9634 20.2319 28.6658 22 28.6658C23.7681 28.6658 25.4638 27.9634 26.714 26.7132C27.9643 25.4629 28.6667 23.7672 28.6667 21.9991C28.6667 20.231 27.9643 18.5353 26.714 17.2851C25.4638 16.0348 23.7681 15.3325 22 15.3325C20.2319 15.3325 18.5362 16.0348 17.286 17.2851C16.0357 18.5353 15.3333 20.231 15.3333 21.9991ZM2 21.9991H15.3333H2ZM28.6667 21.9991H42H28.6667ZM25.5556 16.2214L33.1111 5.55469L25.5556 16.2214ZM18.4444 27.7769L10.8889 38.4436L18.4444 27.7769ZM10.8889 5.55469L18.4444 16.2214L10.8889 5.55469ZM25.5556 27.7769L33.1111 38.4436L25.5556 27.7769Z" fill="#998256"/>
<path d="M15.3333 21.9991C15.3333 23.7672 16.0357 25.4629 17.286 26.7132C18.5362 27.9634 20.2319 28.6658 22 28.6658C23.7681 28.6658 25.4638 27.9634 26.714 26.7132C27.9643 25.4629 28.6667 23.7672 28.6667 21.9991M15.3333 21.9991C15.3333 20.231 16.0357 18.5353 17.286 17.2851C18.5362 16.0348 20.2319 15.3325 22 15.3325C23.7681 15.3325 25.4638 16.0348 26.714 17.2851C27.9643 18.5353 28.6667 20.231 28.6667 21.9991M15.3333 21.9991H2M28.6667 21.9991H42M25.5556 16.2214L33.1111 5.55469M18.4444 27.7769L10.8889 38.4436M10.8889 5.55469L18.4444 16.2214M25.5556 27.7769L33.1111 38.4436" stroke="#998256" stroke-width="3" stroke-linecap="round" stroke-linejoin="round"/>
</svg>
