<svg width="66" height="65" viewBox="0 0 66 65" fill="none" xmlns="http://www.w3.org/2000/svg">
<path d="M25.5 25.3105H27.6429V27.3641H25.5V25.3105ZM28.0714 25.3105H30.2143V27.3641H28.0714V25.3105ZM22.9286 27.7748H25.0714V29.8284H22.9286V27.7748ZM22.9286 30.2391H25.0714V32.2927H22.9286V30.2391Z" fill="#998256" stroke="#090A0C" stroke-width="0.472222"/>
<path d="M22.9286 32.7041H25.0714V34.7577H22.9286V32.7041ZM25.5 35.1684H27.6429V37.222H25.5V35.1684Z" fill="#998256" stroke="#090A0C" stroke-width="0.472222"/>
<path d="M28.0714 35.1709H30.2143V37.2245H28.0714V35.1709ZM30.6429 35.1709H32.7857V37.2245H30.6429V35.1709ZM33.2143 35.1709H35.3571V37.2245H33.2143V35.1709Z" fill="#998256" stroke="#090A0C" stroke-width="0.472222"/>
<path d="M35.7857 35.1709H37.9286V37.2245H35.7857V35.1709ZM38.3571 35.1709H40.5V37.2245H38.3571V35.1709Z" fill="#998256" stroke="#090A0C" stroke-width="0.472222"/>
<path d="M28.0714 37.6338H30.2143V39.6874H28.0714V37.6338Z" fill="#998256" stroke="#090A0C" stroke-width="0.472222"/>
<path d="M30.6429 37.6338H32.7857V39.6874H30.6429V37.6338ZM33.2143 37.6338H35.3571V39.6874H33.2143V37.6338ZM35.7857 37.6338H37.9286V39.6874H35.7857V37.6338ZM30.6429 40.0981H32.7857V42.1516H30.6429V40.0981ZM33.2143 40.0981H35.3571V42.1516H33.2143V40.0981Z" fill="#998256" stroke="#090A0C" stroke-width="0.472222"/>
<path d="M25.5 27.7783H27.6429V29.8319H25.5V27.7783Z" fill="#998256" stroke="#090A0C" stroke-width="0.472222"/>
<path d="M25.5 30.2426H27.6429V32.2962H25.5V30.2426ZM25.5 32.7069H27.6429V34.7605H25.5V32.7069ZM28.0714 27.7783H30.2143V29.8319H28.0714V27.7783ZM28.0714 30.2426H30.2143V32.2962H28.0714V30.2426ZM28.0714 32.7069H30.2143V34.7605H28.0714V32.7069ZM30.6429 27.7783H32.7857V29.8319H30.6429V27.7783ZM33.2143 27.7783H35.3571V29.8319H33.2143V27.7783ZM30.6429 30.2426H32.7857V32.2962H30.6429V30.2426Z" fill="#998256" stroke="#090A0C" stroke-width="0.472222"/>
<path d="M30.6429 32.7055H32.7857V34.7591H30.6429V32.7055ZM33.2143 30.2412H35.3571V32.2948H33.2143V30.2412ZM33.2143 32.7055H35.3571V34.7591H33.2143V32.7055Z" fill="#998256" stroke="#090A0C" stroke-width="0.472222"/>
<path d="M35.7857 25.3105H37.9286V27.3641H35.7857V25.3105Z" fill="#998256" stroke="#090A0C" stroke-width="0.472222"/>
<path d="M35.7857 27.7748H37.9286V29.8284H35.7857V27.7748ZM35.7857 30.2391H37.9286V32.2927H35.7857V30.2391ZM35.7857 32.7034H37.9286V34.757H35.7857V32.7034ZM38.3571 25.3105H40.5V27.3641H38.3571V25.3105ZM38.3571 27.7748H40.5V29.8284H38.3571V27.7748Z" fill="#998256" stroke="#090A0C" stroke-width="0.472222"/>
<path d="M38.3571 30.2426H40.5V32.2962H38.3571V30.2426ZM38.3571 32.7069H40.5V34.7605H38.3571V32.7069ZM40.9286 27.7783H43.0714V29.8319H40.9286V27.7783ZM40.9286 30.2426H43.0714V32.2962H40.9286V30.2426ZM40.9286 32.7069H43.0714V34.7605H40.9286V32.7069Z" fill="#998256" stroke="#090A0C" stroke-width="0.472222"/>
<mask id="mask0_3234_204" style="mask-type:alpha" maskUnits="userSpaceOnUse" x="22" y="25" width="22" height="18">
<path d="M25.284 25.1074H27.8555V27.5717H25.284V25.1074ZM27.8555 25.1074H30.4269V27.5717H27.8555V25.1074ZM22.7126 27.5717H25.284V30.036H22.7126V27.5717ZM22.7126 30.036H25.284V32.5003H22.7126V30.036Z" fill="#E26136"/>
<path d="M22.7126 32.5H25.284V34.9643H22.7126V32.5ZM25.284 34.9643H27.8555V37.4286H25.284V34.9643Z" fill="#FF8964"/>
<path d="M27.8555 34.9639H30.4269V37.4282H27.8555V34.9639ZM30.4269 34.9639H32.9983V37.4282H30.4269V34.9639ZM32.9983 34.9639H35.5698V37.4282H32.9983V34.9639Z" fill="#E26136"/>
<path d="M35.5698 34.9639H38.1412V37.4282H35.5698V34.9639ZM38.1412 34.9639H40.7126V37.4282H38.1412V34.9639Z" fill="#E64C19"/>
<path d="M27.8555 37.4297H30.4269V39.894H27.8555V37.4297Z" fill="#E26136"/>
<path d="M30.4269 37.4297H32.9983V39.894H30.4269V37.4297ZM32.9983 37.4297H35.5698V39.894H32.9983V37.4297ZM35.5698 37.4297H38.1412V39.894H35.5698V37.4297ZM30.4269 39.894H32.9983V42.3583H30.4269V39.894ZM32.9983 39.894H35.5698V42.3583H32.9983V39.894Z" fill="#E64C19"/>
<path d="M25.284 27.5713H27.8555V30.0356H25.284V27.5713Z" fill="#E26136"/>
<path d="M25.284 30.0356H27.8555V32.4999H25.284V30.0356ZM25.284 32.4999H27.8555V34.9641H25.284V32.4999ZM27.8555 27.5713H30.4269V30.0356H27.8555V27.5713ZM27.8555 30.0356H30.4269V32.4999H27.8555V30.0356ZM27.8555 32.4999H30.4269V34.9641H27.8555V32.4999ZM30.4269 27.5713H32.9983V30.0356H30.4269V27.5713ZM32.9983 27.5713H35.5698V30.0356H32.9983V27.5713ZM30.4269 30.0356H32.9983V32.4999H30.4269V30.0356Z" fill="#FF8964"/>
<path d="M30.4269 32.5014H32.9983V34.9657H30.4269V32.5014ZM32.9983 30.0371H35.5698V32.5014H32.9983V30.0371ZM32.9983 32.5014H35.5698V34.9657H32.9983V32.5014Z" fill="#E26136"/>
<path d="M35.5698 25.1074H38.1412V27.5717H35.5698V25.1074Z" fill="#FF8964"/>
<path d="M35.5698 27.5717H38.1412V30.036H35.5698V27.5717ZM35.5698 30.036H38.1412V32.5003H35.5698V30.036ZM35.5698 32.5003H38.1412V34.9646H35.5698V32.5003ZM38.1412 25.1074H40.7126V27.5717H38.1412V25.1074ZM38.1412 27.5717H40.7126V30.036H38.1412V27.5717Z" fill="#E26136"/>
<path d="M38.1412 30.0356H40.7126V32.4999H38.1412V30.0356ZM38.1412 32.4999H40.7126V34.9641H38.1412V32.4999ZM40.7126 27.5713H43.284V30.0356H40.7126V27.5713ZM40.7126 30.0356H43.284V32.4999H40.7126V30.0356ZM40.7126 32.4999H43.284V34.9641H40.7126V32.4999Z" fill="#E64C19"/>
</mask>
<g mask="url(#mask0_3234_204)">
<g filter="url(#filter0_f_3234_204)">
<path d="M44.1412 48.9297C50.7686 48.9297 56.1412 43.781 56.1412 37.4297C56.1412 31.0784 50.7686 25.9297 44.1412 25.9297C37.5138 25.9297 32.1412 31.0784 32.1412 37.4297C32.1412 43.781 37.5138 48.9297 44.1412 48.9297Z" fill="#998256"/>
</g>
</g>
<g opacity="0.3" filter="url(#filter1_f_3234_204)">
<path d="M33 44C39.6274 44 45 38.8513 45 32.5C45 26.1487 39.6274 21 33 21C26.3726 21 21 26.1487 21 32.5C21 38.8513 26.3726 44 33 44Z" fill="#998256"/>
</g>
<defs>
<filter id="filter0_f_3234_204" x="11.3634" y="5.15191" width="65.5556" height="64.5556" filterUnits="userSpaceOnUse" color-interpolation-filters="sRGB">
<feFlood flood-opacity="0" result="BackgroundImageFix"/>
<feBlend mode="normal" in="SourceGraphic" in2="BackgroundImageFix" result="shape"/>
<feGaussianBlur stdDeviation="10.3889" result="effect1_foregroundBlur_3234_204"/>
</filter>
<filter id="filter1_f_3234_204" x="0.222223" y="0.222223" width="65.5556" height="64.5556" filterUnits="userSpaceOnUse" color-interpolation-filters="sRGB">
<feFlood flood-opacity="0" result="BackgroundImageFix"/>
<feBlend mode="normal" in="SourceGraphic" in2="BackgroundImageFix" result="shape"/>
<feGaussianBlur stdDeviation="10.3889" result="effect1_foregroundBlur_3234_204"/>
</filter>
</defs>
</svg>
