<svg width="20" height="20" viewBox="0 0 20 20" fill="none" xmlns="http://www.w3.org/2000/svg">
<path d="M9.07246 2.47283C9.2003 2.34515 9.3736 2.27343 9.55428 2.27343C9.73496 2.27343 9.90826 2.34515 10.0361 2.47283L17.9361 10.3728C17.999 10.4379 18.0743 10.4898 18.1575 10.5255C18.2407 10.5612 18.3302 10.58 18.4207 10.5807C18.5112 10.5815 18.601 10.5642 18.6848 10.5299C18.7686 10.4955 18.8447 10.4449 18.9086 10.3808C18.9726 10.3168 19.0232 10.2406 19.0575 10.1568C19.0917 10.073 19.1089 9.98322 19.1081 9.89269C19.1073 9.80216 19.0884 9.7127 19.0526 9.62953C19.0169 9.54636 18.9649 9.47115 18.8997 9.40829L11.0006 1.50829C10.8107 1.31835 10.5852 1.16768 10.337 1.06488C10.0889 0.962088 9.8229 0.90918 9.55428 0.90918C9.28566 0.90918 9.01968 0.962088 8.77151 1.06488C8.52334 1.16768 8.29786 1.31835 8.10792 1.50829L0.207917 9.40829C0.142826 9.47122 0.0909202 9.54647 0.0552266 9.62967C0.0195329 9.71288 0.000766725 9.80235 2.30076e-05 9.89288C-0.000720709 9.98342 0.0165729 10.0732 0.0508948 10.157C0.0852167 10.2407 0.13588 10.3168 0.199927 10.3808C0.263975 10.4448 0.340125 10.4954 0.423934 10.5297C0.507742 10.5639 0.597531 10.5811 0.688062 10.5803C0.778593 10.5794 0.868051 10.5606 0.951219 10.5248C1.03439 10.4891 1.1096 10.4371 1.17246 10.3719L9.07246 2.47283Z" fill="#636B73"/>
<path d="M9.55469 3.91895L16.972 11.3362C16.9992 11.3635 17.0265 11.3889 17.0547 11.4144V17.0489C17.0547 17.9899 16.2911 18.7535 15.3501 18.7535H12.282C12.1011 18.7535 11.9277 18.6817 11.7998 18.5538C11.672 18.4259 11.6001 18.2525 11.6001 18.0717V13.9808C11.6001 13.7999 11.5283 13.6265 11.4004 13.4986C11.2726 13.3708 11.0992 13.2989 10.9183 13.2989H8.19105C8.01022 13.2989 7.8368 13.3708 7.70893 13.4986C7.58107 13.6265 7.50923 13.7999 7.50923 13.9808V18.0717C7.50923 18.2525 7.4374 18.4259 7.30953 18.5538C7.18167 18.6817 7.00824 18.7535 6.82741 18.7535H3.75923C3.30716 18.7535 2.8736 18.5739 2.55394 18.2542C2.23427 17.9346 2.05469 17.501 2.05469 17.0489V11.4144C2.08297 11.3891 2.11056 11.363 2.13741 11.3362L9.55469 3.91895Z" fill="#636B73"/>
</svg>
