<svg width="30" height="40" viewBox="0 0 30 40" fill="none" xmlns="http://www.w3.org/2000/svg">
<path d="M9.59769 28.3671C8.0416 30.4123 5.15123 29.5432 4.33974 27.1049C2.56395 21.769 0 13.1638 0 7.9602C0 0 4 0 4 0H6C6 0 8 0 8 1.99005C8 3.9801 6 3.9801 6 7.9602C6 11.9403 12 15.9204 12 21.8905C12 24.4768 10.8741 26.6896 9.59769 28.3671ZM16 29.9502C16 29.8953 15.9584 29.8504 15.9036 29.8543C13.8144 30.0047 8 34.8259 8 34.8259C7.4 35.2239 7.6 35.8209 8 36.4179C8 36.4179 10 40 14 40H26C28.2 40 30 38.209 30 36.0199V34.0299C30 31.8408 28.2 30.0498 26 30.0498H16.0995C16.0445 30.0498 16 30.0052 16 29.9502Z" fill="#998256"/>
</svg>
