<svg width="20" height="20" viewBox="0 0 20 20" fill="none" xmlns="http://www.w3.org/2000/svg">
<path d="M12.0781 4.04759C12.0797 2.89472 11.6646 1.78011 10.9092 0.90918C12.4384 1.31127 13.8335 2.11233 14.9516 3.23044C16.0697 4.34854 16.8707 5.74356 17.2728 7.27282C16.4019 6.51745 15.2873 6.10231 14.1344 6.10391H12.4208C12.3299 6.10391 12.2427 6.0678 12.1785 6.00353C12.1142 5.93926 12.0781 5.85208 12.0781 5.76119V4.04759Z" fill="#636B73"/>
<path fill-rule="evenodd" clip-rule="evenodd" d="M5.18631 0.90918H7.97556C8.79751 0.90918 9.5858 1.26835 10.167 1.90768C10.7482 2.54701 11.0747 3.41412 11.0747 4.31827V6.02282C11.0747 6.96463 11.769 7.72736 12.6243 7.72736H14.1739C14.9959 7.72736 15.7841 8.08653 16.3654 8.72586C16.9466 9.36519 17.2731 10.2323 17.2731 11.1365V18.2955C17.2731 19.2365 16.5789 20.0001 15.7235 20.0001H5.18631C4.77533 20.0001 4.38119 19.8205 4.09058 19.5008C3.79998 19.1812 3.63672 18.7476 3.63672 18.2955V2.61373C3.63672 1.67191 4.33093 0.90918 5.18631 0.90918ZM8.5954 15.2274C8.5954 15.0465 8.53009 14.8731 8.41385 14.7452C8.29761 14.6174 8.13995 14.5455 7.97556 14.5455C7.81117 14.5455 7.65351 14.6174 7.53727 14.7452C7.42103 14.8731 7.35573 15.0465 7.35573 15.2274V15.9092C7.35573 16.09 7.42103 16.2634 7.53727 16.3913C7.65351 16.5192 7.81117 16.591 7.97556 16.591C8.13995 16.591 8.29761 16.5192 8.41385 16.3913C8.53009 16.2634 8.5954 16.09 8.5954 15.9092V15.2274ZM10.4549 12.5001C10.6193 12.5001 10.7769 12.5719 10.8932 12.6998C11.0094 12.8277 11.0747 13.0011 11.0747 13.1819V15.9092C11.0747 16.09 11.0094 16.2634 10.8932 16.3913C10.7769 16.5192 10.6193 16.591 10.4549 16.591C10.2905 16.591 10.1329 16.5192 10.0166 16.3913C9.90037 16.2634 9.83507 16.09 9.83507 15.9092V13.1819C9.83507 13.0011 9.90037 12.8277 10.0166 12.6998C10.1329 12.5719 10.2905 12.5001 10.4549 12.5001ZM13.5541 11.1365C13.5541 10.9556 13.4888 10.7822 13.3725 10.6543C13.2563 10.5265 13.0986 10.4546 12.9342 10.4546C12.7698 10.4546 12.6122 10.5265 12.496 10.6543C12.3797 10.7822 12.3144 10.9556 12.3144 11.1365V15.9092C12.3144 16.09 12.3797 16.2634 12.496 16.3913C12.6122 16.5192 12.7698 16.591 12.9342 16.591C13.0986 16.591 13.2563 16.5192 13.3725 16.3913C13.4888 16.2634 13.5541 16.09 13.5541 15.9092V11.1365Z" fill="#636B73"/>
</svg>
