<svg width="40" height="40" viewBox="0 0 40 40" fill="none" xmlns="http://www.w3.org/2000/svg">
<g clip-path="url(#clip0_3431_138)">
<path fill-rule="evenodd" clip-rule="evenodd" d="M20 26.6667C21.7681 26.6667 23.4638 25.9643 24.714 24.714C25.9643 23.4638 26.6667 21.7681 26.6667 20C26.6667 18.2319 25.9643 16.5362 24.714 15.286C23.4638 14.0357 21.7681 13.3333 20 13.3333C18.2319 13.3333 16.5362 14.0357 15.286 15.286C14.0357 16.5362 13.3333 18.2319 13.3333 20C13.3333 21.7681 14.0357 23.4638 15.286 24.714C16.5362 25.9643 18.2319 26.6667 20 26.6667ZM20 30C22.6522 30 25.1957 28.9464 27.0711 27.0711C28.9464 25.1957 30 22.6522 30 20C30 17.3478 28.9464 14.8043 27.0711 12.9289C25.1957 11.0536 22.6522 10 20 10C17.3478 10 14.8043 11.0536 12.9289 12.9289C11.0536 14.8043 10 17.3478 10 20C10 22.6522 11.0536 25.1957 12.9289 27.0711C14.8043 28.9464 17.3478 30 20 30ZM18.3333 0H21.6667V6.77C20.5599 6.63056 19.4401 6.63056 18.3333 6.77V0ZM11.8233 9.46667L7.03667 4.68L4.68 7.03667L9.46667 11.8233C10.1506 10.9423 10.9423 10.1506 11.8233 9.46667ZM6.77 18.3333H0V21.6667H6.77C6.63056 20.5599 6.63056 19.4401 6.77 18.3333ZM9.46667 28.1767L4.68 32.9633L7.03667 35.32L11.8233 30.5333C10.9423 29.8494 10.1506 29.0577 9.46667 28.1767ZM18.3333 33.23V40H21.6667V33.23C20.5599 33.3694 19.4401 33.3694 18.3333 33.23ZM28.1767 30.5333L32.9633 35.32L35.32 32.9633L30.5333 28.1767C29.8494 29.0577 29.0577 29.8494 28.1767 30.5333ZM33.23 21.6667H40V18.3333H33.23C33.3694 19.4401 33.3694 20.5599 33.23 21.6667ZM30.5333 11.8233L35.32 7.03667L32.9633 4.68L28.1767 9.46667C29.0567 10.15 29.8483 10.9433 30.5333 11.8233Z" fill="#998256"/>
</g>
<defs>
<clipPath id="clip0_3431_138">
<rect width="40" height="40" rx="4" fill="white"/>
</clipPath>
</defs>
</svg>
