<svg width="40" height="40" viewBox="0 0 40 40" fill="none" xmlns="http://www.w3.org/2000/svg">
<path d="M20.246 17.9295C20.2168 17.8921 20.1794 17.8619 20.1368 17.8411C20.0941 17.8204 20.0473 17.8096 19.9999 17.8096C19.9525 17.8096 19.9057 17.8204 19.863 17.8411C19.8204 17.8619 19.783 17.8921 19.7538 17.9295L15.3788 23.4646C15.3427 23.5107 15.3203 23.566 15.3142 23.6241C15.3081 23.6823 15.3184 23.741 15.3441 23.7936C15.3698 23.8462 15.4097 23.8905 15.4594 23.9214C15.509 23.9523 15.5664 23.9687 15.6249 23.9685H18.5116V33.4373C18.5116 33.6092 18.6522 33.7498 18.8241 33.7498H21.1679C21.3397 33.7498 21.4804 33.6092 21.4804 33.4373V23.9724H24.3749C24.6366 23.9724 24.7811 23.6717 24.621 23.4685L20.246 17.9295Z" fill="#B08747"/>
<path d="M31.6953 14.3242C29.9063 9.60547 25.3477 6.25 20.0078 6.25C14.668 6.25 10.1094 9.60156 8.32031 14.3203C4.97266 15.1992 2.5 18.25 2.5 21.875C2.5 26.1914 5.99609 29.6875 10.3086 29.6875H11.875C12.0469 29.6875 12.1875 29.5469 12.1875 29.375V27.0312C12.1875 26.8594 12.0469 26.7188 11.875 26.7188H10.3086C8.99219 26.7188 7.75391 26.1953 6.83203 25.2461C5.91406 24.3008 5.42578 23.0273 5.46875 21.707C5.50391 20.6758 5.85547 19.707 6.49219 18.8906C7.14453 18.0586 8.05859 17.4531 9.07422 17.1836L10.5547 16.7969L11.0977 15.3672C11.4336 14.4766 11.9023 13.6445 12.4922 12.8906C13.0745 12.1434 13.7643 11.4865 14.5391 10.9414C16.1445 9.8125 18.0352 9.21484 20.0078 9.21484C21.9805 9.21484 23.8711 9.8125 25.4766 10.9414C26.2539 11.4883 26.9414 12.1445 27.5234 12.8906C28.1133 13.6445 28.582 14.4805 28.918 15.3672L29.457 16.793L30.9336 17.1836C33.0508 17.7539 34.5312 19.6797 34.5312 21.875C34.5312 23.168 34.0273 24.3867 33.1133 25.3008C32.665 25.7517 32.1318 26.1092 31.5444 26.3526C30.957 26.596 30.3272 26.7204 29.6914 26.7188H28.125C27.9531 26.7188 27.8125 26.8594 27.8125 27.0312V29.375C27.8125 29.5469 27.9531 29.6875 28.125 29.6875H29.6914C34.0039 29.6875 37.5 26.1914 37.5 21.875C37.5 18.2539 35.0352 15.207 31.6953 14.3242Z" fill="#998256"/>
</svg>
