<svg width="20" height="20" viewBox="0 0 20 20" fill="none" xmlns="http://www.w3.org/2000/svg">
<path fill-rule="evenodd" clip-rule="evenodd" d="M5.18631 0C4.33011 0 3.63672 0.8 3.63672 1.78571V18.2143C3.63672 19.2 4.33093 20 5.18631 20H15.7235C16.5789 20 17.2731 19.2 17.2731 18.2143V10.7143C17.2731 9.76708 16.9466 8.85868 16.3654 8.1889C15.7841 7.51913 14.9959 7.14286 14.1739 7.14286H12.6243C12.2133 7.14286 11.8192 6.95472 11.5286 6.61983C11.238 6.28495 11.0747 5.83074 11.0747 5.35714V3.57143C11.0747 2.62423 10.7482 1.71582 10.167 1.04605C9.5858 0.376274 8.79751 0 7.97556 0H5.18631ZM6.73589 12.8571C6.73589 12.6677 6.8012 12.486 6.91744 12.3521C7.03368 12.2181 7.19134 12.1429 7.35573 12.1429H13.5541C13.7185 12.1429 13.8761 12.2181 13.9924 12.3521C14.1086 12.486 14.1739 12.6677 14.1739 12.8571C14.1739 13.0466 14.1086 13.2283 13.9924 13.3622C13.8761 13.4962 13.7185 13.5714 13.5541 13.5714H7.35573C7.19134 13.5714 7.03368 13.4962 6.91744 13.3622C6.8012 13.2283 6.73589 13.0466 6.73589 12.8571ZM7.35573 15C7.19134 15 7.03368 15.0753 6.91744 15.2092C6.8012 15.3432 6.73589 15.5248 6.73589 15.7143C6.73589 15.9037 6.8012 16.0854 6.91744 16.2194C7.03368 16.3533 7.19134 16.4286 7.35573 16.4286H10.4549C10.6193 16.4286 10.7769 16.3533 10.8932 16.2194C11.0094 16.0854 11.0747 15.9037 11.0747 15.7143C11.0747 15.5248 11.0094 15.3432 10.8932 15.2092C10.7769 15.0753 10.6193 15 10.4549 15H7.35573Z" fill="#636B73"/>
<path d="M10.9092 0.90918C11.6646 1.78011 12.0797 2.89472 12.0781 4.04759V5.76119C12.0781 5.95037 12.2316 6.10391 12.4208 6.10391H14.1344C15.2873 6.10231 16.4019 6.51745 17.2728 7.27282C16.8707 5.74356 16.0697 4.34854 14.9516 3.23044C13.8335 2.11233 12.4384 1.31127 10.9092 0.90918Z" fill="#636B73"/>
</svg>
